<svg version="1.1" viewBox="0.0 0.0 675.8451443569554 436.1443569553806" fill="none" stroke="none" stroke-linecap="square" stroke-miterlimit="10" xmlns:xlink="http://www.w3.org/1999/xlink" xmlns="http://www.w3.org/2000/svg"><clipPath id="p.0"><path d="m0 0l675.84515 0l0 436.14435l-675.84515 0l0 -436.14435z" clip-rule="nonzero"/></clipPath><g clip-path="url(#p.0)"><path fill="#000000" fill-opacity="0.0" d="m0 0l675.84515 0l0 436.14435l-675.84515 0z" fill-rule="evenodd"/><path fill="#000000" fill-opacity="0.0" d="m14.332021 139.74147l647.1811 0l0 156.66142l-647.1811 0z" fill-rule="evenodd"/><path fill="#000000" d="m112.8027 205.97585q13.34375 0 22.484367 6.90625q9.15625 6.890625 9.9375 19.203125l-18.562492 0q-0.84375 -5.921875 -4.359375 -8.890625q-3.515625 -2.96875 -9.625 -2.96875q-7.625 0 -11.859375 6.25q-4.234375 6.25 -4.234375 16.15625q0 9.890625 4.171875 15.812485q4.171875 5.921875 11.53125 5.921875q6.3125 0 10.21875 -3.609375q3.90625 -3.609375 4.875 -10.45311l18.234367 0q-1.890625 13.67186 -10.6875 20.999985q-8.781242 7.328125 -22.515617 7.328125q-15.359375 0 -25.0625 -9.859375q-9.703125 -9.875 -9.703125 -25.499985q0 -16.71875 9.53125 -27.0q9.546875 -10.296875 25.625 -10.296875zm63.012627 -24.40625l0 95.17186l-18.9375 0l0 -95.17186l18.9375 0zm33.795532 26.234375l0 39.515625q0 7.8125 2.734375 12.07811q2.734375 4.265625 9.4375 4.265625q7.8125 0 11.21875 -4.71875q3.421875 -4.7343597 3.421875 -14.35936l0 -36.78125l18.953125 0l0 68.937485l-18.03125 0l0 -9.5625l-0.390625 0q-3.578125 5.71875 -9.25 8.59375q-5.65625 2.859375 -11.90625 2.859375q-12.828125 0 -18.953125 -6.546875q-6.125 -6.546875 -6.125 -21.124985l0 -43.15625l18.890625 0zm79.03337 -26.234375l0 34.625l0.328125 0q3.046875 -4.6875 8.78125 -7.453125q5.734375 -2.765625 12.890625 -2.765625q12.109375 0 20.34375 9.796875q8.234375 9.796875 8.234375 26.46875q0 16.531235 -8.234375 26.468735q-8.234375 9.921875 -20.40625 9.921875q-8.328125 0 -14.0625 -2.765625q-5.734375 -2.765625 -8.53125 -7.90625l-0.265625 0l0 8.78125l-17.96875 0l0 -95.17186l18.890625 0zm-0.65625 60.796875q0 9.890625 4.359375 15.95311q4.359375 6.046875 11.78125 6.046875q7.421875 0 11.78125 -6.046875q4.375 -6.0624847 4.375 -15.95311q0 -9.953125 -4.265625 -16.046875q-4.265625 -6.09375 -12.015625 -6.09375q-7.21875 0 -11.625 5.96875q-4.390625 5.953125 -4.390625 16.171875zm86.12967 -60.796875l0 36.515625l38.546875 0l0 -36.515625l20.890625 0l0 95.17186l-20.890625 0l0 -41.07811l-38.546875 0l0 41.07811l-20.96875 0l0 -95.17186l20.96875 0zm94.79303 26.234375l0 39.515625q0 7.8125 2.734375 12.07811q2.734375 4.265625 9.4375 4.265625q7.8125 0 11.21875 -4.71875q3.421875 -4.7343597 3.421875 -14.35936l0 -36.78125l18.953094 0l0 68.937485l-18.03122 0l0 -9.5625l-0.390625 0q-3.578125 5.71875 -9.25 8.59375q-5.65625 2.859375 -11.90625 2.859375q-12.828125 0 -18.953125 -6.546875q-6.125 -6.546875 -6.125 -21.124985l0 -43.15625l18.890625 0zm79.03342 -26.234375l0 34.625l0.328125 0q3.046875 -4.6875 8.78125 -7.453125q5.734375 -2.765625 12.890625 -2.765625q12.109375 0 20.34375 9.796875q8.234375 9.796875 8.234375 26.46875q0 16.531235 -8.234375 26.468735q-8.234375 9.921875 -20.40625 9.921875q-8.328125 0 -14.0625 -2.765625q-5.734375 -2.765625 -8.53125 -7.90625l-0.265625 0l0 8.78125l-17.96875 0l0 -95.17186l18.890625 0zm-0.65625 60.796875q0 9.890625 4.359375 15.95311q4.359375 6.046875 11.78125 6.046875q7.421875 0 11.78125 -6.046875q4.375 -6.0624847 4.375 -15.95311q0 -9.953125 -4.265625 -16.046875q-4.265625 -6.09375 -12.015625 -6.09375q-7.21875 0 -11.625 5.96875q-4.390625 5.953125 -4.390625 16.171875z" fill-rule="nonzero"/></g></svg>